<svg width="147" height="548" viewBox="0 0 147 548" fill="none" xmlns="http://www.w3.org/2000/svg">
<path opacity="0.6" fill-rule="evenodd" clip-rule="evenodd" d="M165.608 548L142.923 548L28.298 508.823L28.298 546.201L2.19119 546.201L2.19119 471.25L23.4814 471.25L139.501 511.026L139.501 470.851L165.608 470.851L165.608 548ZM140.497 512.423L23.3157 472.25L3.18763 472.25L3.18763 545.202L27.3015 545.202L27.3015 507.427L143.088 547.001L164.611 547.001L164.611 471.85L140.497 471.85L140.497 512.423ZM36.2566 394.922L36.2484 394.924C33.4801 395.428 31.2722 396.489 29.5738 398.07C27.9958 399.54 27.1022 401.949 27.1022 405.533C27.1022 408.823 27.9821 411.113 29.5738 412.595C31.2722 414.177 33.4801 415.237 36.2484 415.742L36.2566 415.744C38.9783 416.264 41.9046 416.525 45.0382 416.525L122.761 416.525C125.765 416.525 128.702 416.329 131.572 415.938C134.339 415.43 136.545 414.432 138.239 412.982C139.808 411.511 140.697 409.105 140.697 405.533C140.697 401.949 139.803 399.54 138.225 398.07C136.527 396.489 134.319 395.428 131.55 394.924C128.688 394.402 125.758 394.14 122.761 394.14L45.0382 394.14C41.9046 394.14 38.9783 394.402 36.2566 394.922ZM138.903 413.727C137.043 415.326 134.651 416.392 131.729 416.925C128.806 417.325 125.816 417.525 122.761 417.525L45.0382 417.525C41.8496 417.525 38.8602 417.258 36.0702 416.725C33.1473 416.192 30.7558 415.06 28.8958 413.328C27.0358 411.595 26.1058 408.997 26.1058 405.533C26.1058 401.802 27.0358 399.07 28.8958 397.338C30.7558 395.606 33.1473 394.473 36.0702 393.94C38.8602 393.407 41.8496 393.141 45.0382 393.141L122.761 393.141C125.816 393.141 128.806 393.407 131.729 393.94C134.651 394.473 137.043 395.606 138.903 397.338C140.763 399.07 141.693 401.802 141.693 405.533C141.693 409.264 140.763 411.995 138.903 413.727ZM167.999 405.533C167.999 417.76 165.858 427.556 161.478 434.83C157.108 442.09 150.818 447.296 142.648 450.437C134.534 453.556 124.908 455.1 113.793 455.1L53.8068 455.1C42.5611 455.1 32.9316 453.557 24.9467 450.435C16.9081 447.292 10.7518 442.084 6.51611 434.824C2.13907 427.55 -0.000982254 417.757 -0.000982788 405.533C-0.000983328 393.18 2.13752 383.32 6.51393 376.045C10.7477 368.653 16.9036 363.375 24.9467 360.231C32.9316 357.109 42.561 355.566 53.8068 355.566L113.793 355.566C124.908 355.566 134.534 357.11 142.647 360.229C150.822 363.371 157.112 368.647 161.481 376.039C165.859 383.314 167.999 393.177 167.999 405.533ZM160.625 376.552C156.374 369.356 150.262 364.227 142.291 361.162C134.319 358.097 124.82 356.565 113.793 356.565L53.8068 356.565C42.6467 356.565 33.1473 358.097 25.3086 361.162C17.47 364.227 11.4913 369.356 7.37268 376.552C3.1212 383.614 0.995458 393.274 0.995458 405.533C0.995459 417.658 3.1212 427.252 7.37269 434.314C11.4913 441.376 17.47 446.439 25.3086 449.504C33.1473 452.568 42.6467 454.101 53.8068 454.101L113.793 454.101C124.82 454.101 134.319 452.568 142.291 449.504C150.262 446.439 156.374 441.376 160.625 434.314C164.877 427.252 167.003 417.658 167.003 405.533C167.003 393.274 164.877 383.614 160.625 376.552ZM36.2566 273.814L36.2484 273.816C33.4801 274.32 31.2722 275.381 29.5738 276.962C27.9958 278.432 27.1022 280.841 27.1022 284.425C27.1022 287.715 27.9821 290.005 29.5738 291.487C31.2722 293.069 33.4801 294.129 36.2484 294.634L36.2566 294.636C38.9783 295.156 41.9046 295.418 45.0382 295.418L122.761 295.418C125.765 295.418 128.702 295.222 131.572 294.83C134.339 294.322 136.545 293.324 138.239 291.874C139.808 290.403 140.697 287.998 140.697 284.425C140.697 280.841 139.803 278.432 138.225 276.962C136.527 275.381 134.319 274.32 131.55 273.816C128.688 273.294 125.758 273.032 122.761 273.032L45.0382 273.032C41.9046 273.032 38.9783 273.294 36.2566 273.814ZM131.729 295.817C128.806 296.217 125.816 296.417 122.761 296.417L45.0382 296.417C41.8495 296.417 38.8602 296.15 36.0702 295.617C33.1473 295.084 30.7558 293.952 28.8958 292.22C27.0358 290.487 26.1058 287.889 26.1058 284.425C26.1058 280.694 27.0358 277.962 28.8958 276.23C30.7558 274.498 33.1473 273.365 36.0702 272.832C38.8602 272.299 41.8495 272.033 45.0382 272.033L122.761 272.033C125.816 272.033 128.806 272.299 131.729 272.832C134.651 273.365 137.043 274.498 138.903 276.23C140.763 277.962 141.693 280.694 141.693 284.425C141.693 288.156 140.763 290.887 138.903 292.619C137.043 294.218 134.651 295.284 131.729 295.817ZM167.999 284.425C167.999 296.652 165.858 306.448 161.478 313.722C157.108 320.982 150.818 326.188 142.647 329.329C134.534 332.448 124.908 333.992 113.793 333.992L53.8068 333.992C42.561 333.992 32.9316 332.449 24.9467 329.327C16.9082 326.184 10.7519 320.976 6.51625 313.717C2.13911 306.443 -0.000987546 296.649 -0.00098808 284.425C-0.00098862 272.072 2.13759 262.212 6.51416 254.936C10.7479 247.545 16.9036 242.267 24.9467 239.123C32.9316 236.001 42.561 234.458 53.8068 234.458L113.793 234.458C124.908 234.458 134.534 236.002 142.647 239.121C150.822 242.263 157.111 247.538 161.48 254.93C165.859 262.206 167.999 272.068 167.999 284.425ZM160.625 255.444C156.374 248.249 150.262 243.119 142.291 240.054C134.319 236.989 124.82 235.457 113.793 235.457L53.8068 235.457C42.6467 235.457 33.1473 236.989 25.3086 240.054C17.4699 243.119 11.4913 248.249 7.37268 255.444C3.1212 262.506 0.995453 272.166 0.995453 284.425C0.995454 296.55 3.1212 306.144 7.37268 313.206C11.4913 320.268 17.47 325.331 25.3086 328.396C33.1473 331.461 42.6467 332.993 53.8068 332.993L113.793 332.993C124.82 332.993 134.319 331.461 142.291 328.396C150.262 325.331 156.374 320.268 160.625 313.206C164.877 306.144 167.003 296.55 167.003 284.425C167.003 272.166 164.877 262.506 160.625 255.444ZM36.2566 152.706L36.2484 152.708C33.4801 153.213 31.2722 154.273 29.5738 155.855C27.9958 157.324 27.1022 159.733 27.1022 163.317C27.1022 166.607 27.9821 168.897 29.5738 170.379C31.2722 171.961 33.4801 173.022 36.2484 173.526L36.2566 173.528C38.9783 174.048 41.9046 174.31 45.0382 174.31L122.761 174.31C125.765 174.31 128.702 174.114 131.572 173.722C134.339 173.215 136.545 172.216 138.239 170.766C139.808 169.295 140.697 166.89 140.697 163.317C140.697 159.733 139.803 157.324 138.225 155.855C136.527 154.273 134.319 153.213 131.55 152.708C128.688 152.186 125.758 151.924 122.761 151.924L45.0382 151.924C41.9046 151.924 38.9783 152.186 36.2566 152.706ZM131.729 174.709C128.806 175.109 125.816 175.309 122.761 175.309L45.0382 175.309C41.8495 175.309 38.8602 175.043 36.0702 174.51C33.1473 173.977 30.7558 172.844 28.8958 171.112C27.0358 169.38 26.1058 166.781 26.1058 163.317C26.1058 159.586 27.0358 156.854 28.8958 155.122C30.7558 153.39 33.1473 152.258 36.0702 151.725C38.8602 151.192 41.8495 150.925 45.0382 150.925L122.761 150.925C125.816 150.925 128.806 151.192 131.729 151.725C134.651 152.258 137.043 153.39 138.903 155.122C140.763 156.854 141.693 159.586 141.693 163.317C141.693 167.048 140.763 169.779 138.903 171.511C137.043 173.11 134.651 174.176 131.729 174.709ZM167.999 163.317C167.999 175.544 165.858 185.34 161.478 192.615C157.108 199.875 150.818 205.08 142.647 208.221C134.534 211.34 124.908 212.884 113.793 212.884L53.8068 212.884C42.561 212.884 32.9316 211.341 24.9467 208.219C16.9082 205.076 10.7519 199.869 6.51625 192.609C2.13911 185.335 -0.000992838 175.541 -0.000993372 163.317C-0.000993912 150.964 2.13758 141.104 6.51415 133.829C10.7479 126.437 16.9036 121.16 24.9467 118.015C32.9316 114.893 42.561 113.35 53.8068 113.35L113.793 113.35C124.908 113.35 134.534 114.894 142.647 118.013C150.822 121.156 157.111 126.43 161.48 133.822C165.859 141.098 167.999 150.96 167.999 163.317ZM160.625 134.336C156.374 127.141 150.262 122.011 142.291 118.946C134.319 115.881 124.82 114.349 113.793 114.349L53.8068 114.349C42.6467 114.349 33.1473 115.881 25.3086 118.946C17.4699 122.011 11.4913 127.141 7.37267 134.336C3.12119 141.398 0.995447 151.058 0.995448 163.317C0.995448 175.442 3.12119 185.036 7.37267 192.098C11.4913 199.16 17.4699 204.223 25.3086 207.288C33.1473 210.353 42.6467 211.885 53.8068 211.885L113.793 211.885C124.82 211.885 134.319 210.353 142.291 207.288C150.262 204.223 156.374 199.16 160.625 192.098C164.877 185.036 167.003 175.442 167.003 163.317C167.003 151.058 164.877 141.398 160.625 134.336ZM165.608 69.3895L2.19117 98.9306L2.19117 66.3015L106.196 49.8018L2.19117 34.4401L2.19117 -9.58529e-08L165.608 29.9457L165.608 69.3895ZM112.796 49.7666L3.18761 67.1551L3.18761 97.735L164.611 68.5542L164.611 30.779L3.18761 1.19849L3.18761 33.5772L112.796 49.7666Z" fill="white"/>
</svg>
